<?xml version="1.0" encoding="UTF-8" standalone="no"?>
<!-- Created with Inkscape (http://www.inkscape.org/) -->

<svg
   width="36"
   height="36"
   viewBox="0 0 9.525 9.5249999"
   version="1.1"
   id="svg1"
   xml:space="preserve"
   xmlns="http://www.w3.org/2000/svg"
   xmlns:svg="http://www.w3.org/2000/svg"><defs
     id="defs1" /><g
     id="layer1"><path
       style="fill:#13ad5b;stroke-width:0.999992"
       d="M 4.28718,9.5129384 C 2.833993,9.3527074 1.573935,8.5824484 0.76735104,7.3612974 0.09227704,6.3392634 -0.15420696,5.0344684 0.09514904,3.8029307 0.38546304,2.3691189 1.339772,1.1359608 2.65932,0.48950443 3.351729,0.15029623 3.998739,1.423308e-4 4.767947,1.423308e-4 c 1.065113,0 2.017452,0.3196916992 2.884588,0.9683448992 C 7.91976,1.1683797 8.365192,1.613812 8.565077,1.881028 9.07833,2.5671618 9.376239,3.2957826 9.503091,4.1752094 c 0.02921,0.202725 0.02921,0.978104 0,1.18083 -0.09244,0.640871 -0.278529,1.208951 -0.561445,1.713998 -0.736396,1.314568 -1.995663,2.183238 -3.507377,2.419456 -0.210158,0.03285 -0.9287,0.04749 -1.147089,0.02346 z m 0.211771,-2.891263 c 0.06423,-0.03211 0.372072,-0.330929 1.33387,-1.294695 C 7.219197,3.9377788 7.148004,4.0208524 7.145016,3.7956586 7.142816,3.612967 7.036028,3.4511672 6.868136,3.3752547 6.755441,3.3242817 6.58005,3.3272377 6.470809,3.3818947 6.407239,3.4137117 6.137872,3.6732815 5.341899,4.4695964 L 4.296413,5.5154974 3.721445,4.9427654 C 3.072586,4.2964344 3.068212,4.2931714 2.853317,4.2944434 c -0.190742,0.0015 -0.322556,0.07964 -0.413125,0.246035 -0.04033,0.07402 -0.04906,0.110619 -0.04979,0.208045 -0.0015,0.227962 -0.0233,0.200388 0.806879,1.034827 0.40927,0.411348 0.774485,0.768897 0.811595,0.794554 0.09553,0.06607 0.152002,0.08254 0.287679,0.08405 0.09462,7.4e-4 0.136088,-0.0074 0.202427,-0.04039 z"
       id="path4" /></g></svg>
