<svg width="18" height="18" viewBox="0 0 18 18" fill="none" xmlns="http://www.w3.org/2000/svg">
<path d="M9 0.875C4.52 0.875 0.875 4.52 0.875 9C0.875 13.48 4.52 17.125 9 17.125C13.48 17.125 17.125 13.48 17.125 9C17.125 4.52 13.48 0.875 9 0.875ZM9 2.125C12.8044 2.125 15.875 5.19563 15.875 9C15.875 12.8044 12.8044 15.875 9 15.875C5.19563 15.875 2.125 12.8044 2.125 9C2.125 5.19563 5.19563 2.125 9 2.125ZM9.45 4.99625L8.55 5.875L11.05 8.375H4.625V9.625H11.05L8.55 12.125L9.45 13.0037L13.0037 9.44938L13.4537 8.99937L13.0037 8.54938L9.44938 4.99563L9.45 4.99625Z" fill="#1D67B7"/>
</svg>
