<?xml version="1.0" encoding="UTF-8" standalone="no"?>
<!-- Created with Inkscape (http://www.inkscape.org/) -->

<svg
   width="36"
   height="36"
   viewBox="0 0 9.525 9.5249999"
   version="1.1"
   id="svg1"
   xml:space="preserve"
   xmlns="http://www.w3.org/2000/svg"
   xmlns:svg="http://www.w3.org/2000/svg"><defs
     id="defs1" /><g
     id="layer1"><path
       style="fill:#e7b830;stroke-width:0.999995"
       d="M 4.2642374,9.5083445 C 4.0320784,9.4830474 3.6791574,9.4138883 3.4595124,9.3506683 2.8343794,9.1707365 2.2352734,8.8571527 1.7428464,8.4521309 1.5300044,8.2770803 1.1831224,7.9276073 1.0262214,7.7301889 0.7500584,7.3826987 0.4428134,6.8396762 0.2930964,6.4344621 0.0735944,5.8403728 -0.0149696,5.2914403 0.0020434,4.6303591 c 0.0141,-0.5497833 0.09701,-1.0003763 0.273301,-1.4863108 0.599466,-1.6523966 2.036019,-2.82567831 3.794944,-3.09946771 0.318236,-0.049558 1.022056,-0.053774 1.332379,-0.00798 0.889905,0.1312464 1.653336,0.4613184 2.352738,1.01721091 0.190771,0.1516328 0.57011,0.5321492 0.729553,0.731831 0.413832,0.5182803 0.748541,1.1991556 0.907578,1.8462349 0.153994,0.6265759 0.174678,1.348939 0.05703,1.9901306 -0.171587,0.9348783 -0.600976,1.7686952 -1.260727,2.4482313 -0.753406,0.7759964 -1.663817,1.2453403 -2.743974,1.4146146 -0.20925,0.032766 -0.95851,0.047706 -1.18059,0.023522 z m 0.661222,-1.9139961 c 0.179838,-0.061246 0.308548,-0.2473241 0.308548,-0.4460219 0,-0.2830723 -0.225321,-0.4889969 -0.512571,-0.4684489 -0.174064,0.012434 -0.30362,0.098354 -0.386279,0.2561115 -0.06376,0.1216317 -0.06324,0.300632 0.0015,0.4254884 0.05253,0.1018 0.157449,0.1972401 0.254906,0.2318131 0.09256,0.032843 0.239676,0.033285 0.33428,7.396e-4 z m 0.02419,-1.4397779 c 0.16661,-0.07566 0.271438,-0.2320128 0.288592,-0.4304888 0.01387,-0.1588586 0.03586,-0.1876482 0.203091,-0.2645583 0.540144,-0.248367 0.892679,-0.6884494 1.01824,-1.271096 0.0125,-0.058359 0.02114,-0.201227 0.02023,-0.3373123 -0.0015,-0.1977743 -0.0089,-0.2635007 -0.04608,-0.4047705 -0.126377,-0.4795438 -0.432412,-0.8699129 -0.860548,-1.0976725 -0.990856,-0.5271048 -2.202015,0.00371 -2.483785,1.0892402 -0.05089,0.1958423 -0.06864,0.4349934 -0.04091,0.5505672 0.02884,0.1201815 0.125287,0.2394759 0.241784,0.2990564 0.186634,0.095447 0.379149,0.071972 0.531262,-0.064796 0.108375,-0.097445 0.149629,-0.1947694 0.170973,-0.4034537 0.02091,-0.2047478 0.08076,-0.3419575 0.207432,-0.4758972 0.154131,-0.1629637 0.338845,-0.2427897 0.561839,-0.2427897 0.347751,0 0.646,0.2264274 0.742884,0.563992 0.0449,0.1563378 0.02796,0.3775358 -0.03994,0.5226444 -0.08092,0.1729125 -0.212774,0.3000477 -0.407808,0.3931945 -0.419425,0.2003177 -0.65603,0.4521316 -0.742499,0.7902059 -0.04003,0.156456 -0.04358,0.3709824 -0.0082,0.4903876 0.03285,0.1105213 0.142584,0.2349343 0.252421,0.2860752 0.109422,0.050963 0.287614,0.054365 0.390864,0.00748 z"
       id="path2" /></g></svg>
