<svg width="19" height="18" viewBox="0 0 19 18" fill="none" xmlns="http://www.w3.org/2000/svg">
<path d="M18.5 4V16C18.5 16.55 18.3043 17.021 17.913 17.413C17.5217 17.805 17.0507 18.0007 16.5 18H2.5C1.95 18 1.47933 17.8043 1.088 17.413C0.696667 17.0217 0.500667 16.5507 0.5 16V2C0.5 1.45 0.696 0.979333 1.088 0.588C1.48 0.196667 1.95067 0.000666667 2.5 0H14.5L18.5 4ZM16.5 4.85L13.65 2H2.5V16H16.5V4.85ZM9.5 15C10.3333 15 11.0417 14.7083 11.625 14.125C12.2083 13.5417 12.5 12.8333 12.5 12C12.5 11.1667 12.2083 10.4583 11.625 9.875C11.0417 9.29167 10.3333 9 9.5 9C8.66667 9 7.95833 9.29167 7.375 9.875C6.79167 10.4583 6.5 11.1667 6.5 12C6.5 12.8333 6.79167 13.5417 7.375 14.125C7.95833 14.7083 8.66667 15 9.5 15ZM3.5 7H12.5V3H3.5V7ZM2.5 4.85V16V2V4.85Z" fill="#1D67B7"/>
</svg>
