<?xml version="1.0" encoding="UTF-8" standalone="no"?>
<!-- Created with Inkscape (http://www.inkscape.org/) -->

<svg
   width="36"
   height="36"
   viewBox="0 0 9.525 9.5249999"
   version="1.1"
   id="svg1"
   xml:space="preserve"
   xmlns="http://www.w3.org/2000/svg"
   xmlns:svg="http://www.w3.org/2000/svg"><defs
     id="defs1" /><g
     id="layer1"><path
       style="fill:#eb211e;stroke-width:0.999999"
       d="M 4.4669952,9.5205926 C 3.3333578,9.4206948 2.4513845,9.0588202 1.6407273,8.3609694 1.1892186,7.9722874 0.79481669,7.4690953 0.52555377,6.9381868 0.13834926,6.1747329 -0.01632604,5.486446 0.00606676,4.6265311 0.02538676,3.8844965 0.17220036,3.2948511 0.50205311,2.6344583 1.0524518,1.5325077 1.9995936,0.69188364 3.1598442,0.27556624 c 0.9937057,-0.3565608 2.1004268,-0.3674618 3.1103872,-0.030599 1.654377,0.551744 2.8862259,1.98164406 3.1838793,3.69576056 0.1058338,0.6095127 0.08523,1.3249024 -0.05521,1.9160852 C 9.1431694,6.9335156 8.5164284,7.8936757 7.6315254,8.5643938 6.9778821,9.0598253 6.1961132,9.3788833 5.3666531,9.488737 5.1719119,9.5145317 4.6198174,9.5341179 4.4669592,9.5205929 Z M 3.2198976,6.7781625 C 3.2532096,6.7623455 3.6015227,6.427419 4.0201522,6.0086996 L 4.7614228,5.2672859 5.5116138,6.0153665 C 6.2612095,6.7628557 6.2618792,6.763469 6.3545867,6.7837502 6.628373,6.8436182 6.8494692,6.6049748 6.7761871,6.328652 6.7580251,6.260137 6.6840501,6.1806088 6.0120394,5.5069045 L 5.2680029,4.7609896 6.0034291,4.0238626 C 6.4079133,3.6184473 6.7524847,3.2602017 6.769143,3.2277548 6.788119,3.1907998 6.799173,3.1332748 6.798751,3.073747 6.797441,2.8899826 6.6614116,2.7406606 6.4817656,2.7257602 6.3070091,2.7112732 6.3258461,2.6961222 5.5116148,3.5076697 L 4.7614238,4.2554251 4.0285808,3.5213654 C 3.5976603,3.0897413 3.2679641,2.7727971 3.2283252,2.7520799 3.0972347,2.6835649 2.905373,2.7169719 2.8036003,2.8260939 2.7173163,2.9186009 2.6896571,3.0848482 2.7401933,3.207237 2.7579233,3.250179 3.0003934,3.5044249 3.511132,4.0156214 L 4.2561983,4.7613516 3.5111316,5.5070817 C 3.000393,6.0182782 2.7579276,6.2725165 2.7401929,6.3154661 c -0.054868,0.1328841 -0.017741,0.3070401 0.086264,0.4046098 0.1009062,0.094657 0.2654229,0.118952 0.3934482,0.058094 z"
       id="path3" /></g></svg>
